<svg xmlns="http://www.w3.org/2000/svg" xmlns:xlink="http://www.w3.org/1999/xlink" id="Layer_1" x="0px" y="0px" viewBox="0 0 450.4 205.3" style="enable-background:new 0 0 450.4 205.3;" xml:space="preserve">  <style type="text/css">	.st0{fill:#85BD3C;}	.st1{fill:url(#SVGID_1_);}	.st2{fill:#C8215D;}</style>  <g>	<path class="st0" d="M304,62.2c-1.3-0.7-3.1-0.5-4.8,0.2c-1.9,0.8-4.1,2.4-6.4,4.9c-1.6,1.7-2.6,3.2-3.6,4.7  c-0.7,0.4-1.2-1-1.2-1.2c-0.3-1.9-0.9-3.7-1.8-5.6c-1.9-2.5-4.5-3.8-6.7-4c-7-0.4-13.3,0.1-20.4,0.1c-1.4-3-2.7-6.2-4.3-9.2  c-2.4-4.3-5.1-8.1-8.4-11.5c-1.7-1.8-3.5-3.4-5.5-4.8c-2.6-1.9-5.4-3.5-8.6-4.7c-3.7-1.5-7.6-2.8-11.6-2.7c-4,0.1-7.6,1.4-10.1,3.6  c-2.8,2.6-4.5,7.4-3.1,12.1c0.8,2.7,1.5,4,3.1,6.1c2.3,3,5.4,5.9,8.8,8c2.8,1.8,6.1,4,9.1,5.5c1.3,0.6,2.8,1,4.1,1.7  c-2.5,2.6-5,4.9-7.9,7.9c-0.2,0.3-5.8,5.5-7.3,5.2c-1.4,0-3.5,0.4-3.1-0.6c0.7-3.7,1.7-7.3,1.9-11c0.1-1.4-0.4-2.8-1.5-4.1  c-4.9-5.7-12.8-3.3-19.7,0.6c-3.9,2.3-7.5,5-10.1,7l-14.7,13.7c5.6,0.9,11.4,1.7,17.3,2.3c5-5.7,12.8-13.6,18.1-14.7  c0,0,3.8,0.7,0.2,3.5l-8.2,5.7c0,0-1.5,0.9,0,4c0,0,1.5,0.8,1.3,2.4c4.6,0.3,9.2,0.5,13.9,0.6c7,0.1,14,0,20.7-0.3  c2.6-3.7,6.3-8.1,10.7-10.8c0,0,4.6-3.5,0.9-5.5c0,0-3.1-3.1,1.1-2.4c0,0,6.2,0.2,5.7,3.8c0,0-1.6,7-5,14.1  c3.3-0.3,6.6-0.7,9.8-1.1c0,0,0-0.1,0-0.1c0,0,3.7-7.8,4-14.6c0,0,1.2-1.4,5.6-0.2c1.6,0.4,3.5,0.9,4.6,1.8c0,0,1.4,3-1.6,9.7  c-0.2,0.6-0.5,1.1-0.7,1.6c11.9-2.1,23-4.9,32.8-8.3c0.2-2,0.6-4,1.2-5.9c0.5-1.8,2-3.4,2.7-5.4C305.9,62.9,305.1,62.7,304,62.2z   M223.6,47.9c-4.3-7,1.3-9,1.3-9c16.7-3.7,24.3,22.3,24.3,22.3C233.6,60.9,223.6,47.9,223.6,47.9z M178.3,65  c1.2-1.5,1.3-2.8,0.6-4.1c-0.5-0.8-1.6-1.3-3.6-1.2c-2,0.1-4,0.9-6,2.2c-1.8,1.2-3.3,2.4-5.1,3.9c-1.9,2-4.1,3.8-6,5.8  c-1.8,2-3.5,4.1-5.4,6.1c-0.9,0.9-1.7,1.8-2.5,2.6c4.5,1.1,9.2,2.1,14.1,3l2.1-2.8c2-2.6,4-5.3,6-7.9C174.4,70,176.3,67.5,178.3,65  z M170.5,42.5c4.7-1.1,8.6-1.5,11.6-1.3c3.2,0.1,6.4,0.2,9.6,0.3c1.1-1.7,2.2-3.4,3.4-5.2c0.6-0.9,1.2-1.8,1.8-2.7l5.3-8.4  c0,0-20.1-3.5-51.7,12.6c0,0-21.3,10.7-38.9,28.7c4.7,2.4,9.8,4.6,15.2,6.6c0.1-0.2,0.3-0.3,0.4-0.5c2.1-2.6,4.3-5.3,6.8-7.7  c3-2.8,6.2-5.4,9.3-8.1c3-2.6,7.3-5.6,12.5-8.7C160,45.6,165,43.8,170.5,42.5z"></path>	<radialGradient id="SVGID_1_" cx="246.0027" cy="74.9749" r="98.9507" gradientUnits="userSpaceOnUse">		<stop offset="0" style="stop-color:#6DCFF6"></stop>		<stop offset="1" style="stop-color:#007DC5"></stop>	</radialGradient>	<path class="st1" d="M246.9,86.8c-3.2,6.5-8.1,13-14.9,14c0,0-6,0.2-2.4-6.9c0,0,1.5-2.8,3.9-6.2c0,0,0,0,0,0  c-6.8,0.3-13.7,0.4-20.7,0.3c-4.7-0.1-9.3-0.3-13.9-0.6c-0.1,0.6-0.4,1.3-1.1,2.1c0,0-4,5.7-8.5,9.2c3,0.6,5.9,1.2,9,1.7l11.1-11  c0,0,2.5-1.7,3.8-1c0,0,1.1-0.8,0.3,2.9c0,0-2,5.5-1.7,11.2c7.5,1,15.2,1.8,23.1,2.4c3.1,0.2,6.2,0.4,9.2,0.6  c2.3-2.4,4.7-5.3,7-8.9c2.3-3.5,3.8-7.3,5.6-10.9C253.4,86.1,250.2,86.5,246.9,86.8z M163,90.8c-4.3,1.9-2.9-2.1-2.9-2.1l6.3-8.3  l-2.1,2.8c-4.8-0.9-9.5-1.9-14.1-3c-1.4,1.4-2.8,2.7-3.8,3.8c-0.6,0.6-1.3,1.3-2,2c10.9,4.1,23,7.7,36,10.7c0.2-1.2,0.8-2.7,2-4.4  c0,0,2-2.6,4.9-5.9c-5.9-0.6-11.7-1.3-17.3-2.3L163,90.8z M111.5,66.5c-0.7,0.7-1.3,1.4-2,2.1c4.2,2.9,8.9,5.7,14.1,8.3  c1.2-1.4,2.4-2.8,3.5-4.3c-0.1,0.2-0.3,0.3-0.4,0.5C121.3,71.1,116.2,68.9,111.5,66.5z M381,45.1c-3-2.8-6.8,0.3-8.9,2.6  c-0.6,0.6-1.2,1.2-1.7,1.9c-1.2,1.5-2.1,3.1-2.4,5.3c-0.2,1.9,0.8,3.3,2.3,4.1c0.1,0,0.3,0.1,0.4,0.2c2.1,0.9,4.9,0.8,6.5-0.3  c2-1.4,4.4-5.5,5.1-8C382.8,48.7,382.3,46.3,381,45.1z M301.5,75.5C301.5,75.6,301.5,75.6,301.5,75.5L301.5,75.5  C301.5,75.6,301.5,75.6,301.5,75.5z M372,62.8c-0.3-0.1-0.5-0.2-0.8-0.3c-1.2-0.4-2.6-0.3-4,0.2c-1.4,0.5-2.8,1.2-4.1,2  c-1.8,1.1-3.5,2.4-5,3.8c-2,1.8-3.8,3.7-5.7,5.7c-2,2.2-3.9,3.6-6.1,5.8c-3.3,3.3-6.5,7-10,10.1c-2.9,2.5-6.1,5.3-9.4,7.5  c-1.6,1.1-1.3,1.3-3,2.1c-1.7,0.7-3.9,1-6,0.5c-1.3-0.3-2.2-1.2-2.8-3.2c-0.3-1.1-0.3-2.6,0.4-4.3c0.4-0.3,0.7-0.2,1.5-0.4  c4-1.3,6.4-2.7,10.5-5.3c1.7-1.1,3.4-2.2,5-3.5c5.1-3.9,7.7-8.3,10.2-13.5c1.5-3.3-0.3-6.1-0.3-6.1c-7.6-5.5-19.8,4.2-19.8,4.2  c-3.8,2.6-7.3,5.5-10.3,8.5c-2.4,2.4-4.5,4.7-7,7.2c-1.8-0.3-2.8-0.2-3.5-1.3c-1-1.6-0.5-4.1-0.3-6c0-0.2,0.1-0.5,0.1-0.7  c-9.9,3.4-20.9,6.2-32.8,8.3c0.2-0.5,0.5-1.1,0.7-1.6c-2,4.6-3.8,7.3-6.3,11.6c-2.6,4.3-5,8.1-7.5,12c6.2,0.1,12.4,0.1,18.4-0.1  c3-4.7,5.6-9.5,8.6-14.6c0.7-0.5,1.2-0.6,1.6-0.2c1.1,2.8,2.5,5.1,4.9,5.8c3.2,0.8,6.2,0.2,8.9-1.4c-1.6,2.8-2.4,5-2.7,9  c0,0.1,0,0.1,0,0.2c15.1-1.4,29.1-3.8,41.6-7.1c0.1-0.1,0.2-0.2,0.3-0.3c1.1-1.3,0.7-0.7,0.3,0.2c5.5-1.5,10.7-3.1,15.6-4.9  c1-1.4,2.1-2.9,3.1-4.5c1.6-2.5,2.7-4.2,4.5-6.5c2.2-2.9,5-5.1,7.2-7.9c1.1-1.3,2.3-2.4,3.4-3.7c0.6-0.7,1.1-1.4,1.5-2.2  C374.3,65.2,373.5,63.6,372,62.8z M324.7,76.8c3.4-3.2,6.7-5.1,7.4-4.4c0.7,0.7-1.5,3.9-4.9,7.1c-3.4,3.2-6.7,5.1-7.4,4.4  C319.1,83.1,321.3,79.9,324.7,76.8z M114.9,63.2c3.3-3.1,6.7-6,10-8.6C121.6,57.2,118.2,60,114.9,63.2z"></path>	<path class="st2" d="M233.5,87.7C233.5,87.7,233.5,87.7,233.5,87.7C233.5,87.7,233.5,87.7,233.5,87.7  C233.5,87.7,233.5,87.7,233.5,87.7z M299,114.5c4.7,3.3,9.9,1.5,14.6-0.9c3.4-1.7,6.7-3.7,9.8-5.9c1.1-0.7,2.2-1.5,3.4-2.3  c2.6-1.9,5.2-3.8,7.7-5.8c0.9-0.8,1.8-1.5,2.6-2.4c-0.1,0.1-0.2,0.2-0.3,0.3c-12.5,3.3-26.5,5.7-41.6,7.1  C295,108.5,295.9,112.3,299,114.5z M198.2,100.4c-3-0.5-6-1.1-9-1.7c0,0,0,0,0,0c-2.7,2.1-5.5,3.5-7.7,2.3c0,0-1.6-1.4-1.2-4.2  c-13-3-25.1-6.6-36-10.7c-3.3,3.1-7.6,6.7-11.7,9.7c-2.6,2-4.9,3.7-7.3,4.8c-2.3,1-4.9,1.8-7.8,1.5c-3.2-0.3-4.7-2.2-4-5.5  c0.5-2.4,1.5-4.8,2.5-7.1c1.2-2.7,2.6-5.6,4.3-8.4c0.9-1.5,2-2.9,3.1-4.3c-5.1-2.6-9.8-5.4-14.1-8.3c-7.5,8.1-14.2,17.5-17.9,28  c0,0-6.6,29,34.9,11.9c0,0,4.2-1.5-0.9,4.4l-21.6,13.6c-3.9,2.5-7.9,4.9-11.8,7.5c-8.4,5.6-16.4,11.6-23.1,19  c-3.4,3.8-6.1,8.2-7.1,13.3c-0.1,0.5-0.2,0.9-0.2,1.4l0,1.7c0.6,6.4,10.3,8.2,16.2,6.7c5.8-1.4,11.4-4.2,16.6-7.4  c1.8-1.1,3.4-2.3,5-3.5c9.2-6.9,16.6-15.1,23.7-24.5l4.9-6.3c1.6-2.2,3.3-4.5,4.9-6.7c1.4-2,2.7-3.9,4.1-5.9c1.8-3,3.8-4.9,5.6-7.9  c2.2-2,4.6-4.1,7.1-5.7c2.7-1.8,5.2-4.1,7.9-5.9c1.5-0.9,4-1.9,6-3.2c-0.2,1.7-0.6,3.5-0.7,5.3c-0.1,2.1,0.1,4.1,0.9,5.7  c1.2,2.3,3.7,4.8,6.4,5.2c0,0,9.8,3.6,22.7-10 M106.4,139.1c0,0-12.7,24.3-23.8,26.1c0,0-6.6-0.8-1.5-7.1c0,0,14.4-16.5,24.3-21  C105.3,137.1,107.6,136.6,106.4,139.1z M109.5,68.6C109.5,68.6,109.6,68.6,109.5,68.6c0.1-0.1,0.2-0.2,0.2-0.2  C109.7,68.4,109.6,68.5,109.5,68.6z M337,98.6c-1.2,2-1.9,3.2-3,5.1c-1.9,2.8-3.7,5.6-5.7,8.3c-0.8,1-1.5,2-2.2,3  c-2,2.6-4,5.2-6,7.8c-2,2.6-3.9,5.3-5.9,7.9c-2.8,3.6-5.7,7.1-8.5,10.7c-2.2,2.7-4.2,5.5-6.5,8.1c-2.4,2.9-4.9,5.7-7.4,8.6  c-2.2,2.5-4,5.5-5.8,8.3c-1.1,1.6-1.4,2.4-1.5,4.3c-0.1,1.6,0.8,3.4,2,4.5c1.4,1.3,3.2,1.5,5.2,1.4c2.4-0.1,4.7-1.4,6.8-2.6  c2.1-1.3,2.9-2,4.7-3.8c2.2-2.2,4.3-4.7,6.3-7.1c2.4-2.9,4.7-5.9,6.9-9c2.7-3.9,5.5-7.8,8-11.7c0.5-0.9,1.1-1.8,1.7-2.7  c1.4-2.4,2.9-4.9,4.3-7.3c2.4-4.1,4.7-8.2,7-12.4c2-3.6,3.8-7.2,5.8-10.7c1.9-3.6,3.8-7.3,5.8-10.9c1.2-2.1,2.6-4,4-6  c-4.9,1.8-10.1,3.4-15.6,4.9C337.3,97.7,337.1,98.2,337,98.6z M250.6,113.9c5.4,0,11.8,0.1,17.2,0.1c2.4-2.8,4.3-5.5,6.1-8.2  c-6,0.2-12.1,0.2-18.4,0.1 M244,105.5c0,0,0.1-0.1,0.1-0.1C244.1,105.4,244.1,105.4,244,105.5C244,105.5,244,105.5,244,105.5z   M211.8,102.5c0.3,5.7,2.8,11.7,12,12.6c0,0,9.5,1.5,20.3-9.6c-3-0.2-6.1-0.3-9.2-0.6C227,104.3,219.3,103.5,211.8,102.5z   M211.8,102.4"></path></g></svg>