<svg xmlns="http://www.w3.org/2000/svg" xmlns:xlink="http://www.w3.org/1999/xlink" id="Layer_1" x="0px" y="0px" viewBox="0 0 841.9 358.5" style="enable-background:new 0 0 841.9 358.5;" xml:space="preserve">  <style type="text/css">	.st0{fill-rule:evenodd;clip-rule:evenodd;fill:#ED1C24;}	.st1{fill:#797979;}</style>  <rect x="103.3" y="288.4" class="st0" width="636.8" height="24.7"></rect>  <g>	<path class="st1" d="M102.6,75h5.4c12.1,0,22,9.8,22,22v123.7c0,12.1-9.8,22-22,22h-5.4v28.6h139.4v-28.6h-5.4  c-12.1,0-22-9.8-22-22V96.9c0-12.1,9.8-22,22-22h5.4V46.4H102.6V75z"></path>	<path class="st1" d="M369,220.7L369,46.4H257V75h5.4c12.1,0,22,9.8,22,22v123.7c0,12.1-9.8,22-22,22H257v28.6h139.4v-28.6H391  C378.9,242.6,369,232.8,369,220.7z"></path>	<path class="st1" d="M483.6,75h5.4c12.1,0,22,9.8,22,22v123.7c0,12.1-9.8,22-22,22h-5.4v28.6H595l0.6-224.8h-112V75z"></path>	<path class="st1" d="M380.8,75h39.7c12.1,0,22,9.8,22,22v37.4h27v-88h-88.6V75z"></path>	<path class="st1" d="M399.1,115.4c0,12.1,1.6,22-18.3,22v11.8V161c19.9,0,18.3,9.8,18.3,22v11.3h26.7v-45v-45h-26.7V115.4z"></path>	<path class="st1" d="M695.3,156.8c20.2-9.4,34.8-29.4,34.8-52.6c0-32.2-28.3-58.4-60.5-58.4h-62.7v30.4h0.5  c18.5,0,40.2,7.1,39.9,33.5c-0.3,24.6-21.4,33.5-39.9,33.5v26.3c20.9,0,45.8,6.7,44.5,37.9c-1.1,27.2-23.6,33.1-44.5,33.1h-0.5  v30.7h72c32.2,0,60.5-26.1,60.5-58.4C739.3,186.3,720.1,163.8,695.3,156.8z"></path></g></svg>