<svg xmlns="http://www.w3.org/2000/svg" xmlns:xlink="http://www.w3.org/1999/xlink" id="Layer_1" x="0px" y="0px" viewBox="0 0 2500 1096" style="enable-background:new 0 0 2500 1096;" xml:space="preserve">  <style type="text/css">	.st0{fill:#A50034;}	.st1{display:none;fill:#FFFFFF;}	.st2{fill:#6B6B6B;}</style>  <g>	<g>		<path class="st0" d="M738.8,148.5c-221,0-399.8,178.8-399.8,399.6c0,220.8,178.8,399.4,399.8,399.4   c220.6,0,399.8-178.7,399.8-399.4C1138.6,327.3,959.4,148.5,738.8,148.5z M834.2,691.8v31.5H722.7V372.7l32.1,0v319H834.2z    M975.3,784.6c-63.2,63-147.2,97.8-236.4,97.8c-89.6,0-173.6-34.8-236.9-97.8c-63-63.1-97.9-147.1-97.9-236.7   c0-184.4,150.2-334.7,334.7-334.7c5.3,0.1,10.6,0.2,15.9,0.5v31.1c-3.9-0.2-12.4-0.2-15.9-0.2c-81.2,0-157.3,31.6-214.5,88.8   c-57.5,57.3-89.1,133.7-89.1,214.5c0,81.3,31.7,157.3,89.1,214.4c57.3,57.3,133.4,88.9,214.5,88.9c160.3,0,292-124.9,302.6-282.6   c0.1-0.8,0.1-4.1,0.1-4.8H834.5V533h239v14.9C1073.5,637.5,1038.5,721.5,975.3,784.6z M659,420.5c0,26.4-21.4,47.9-47.9,47.9   c-26.5,0-47.9-21.5-47.9-47.9c0-26.3,21.4-48,47.9-48S659,394.1,659,420.5z"></path>		<polygon class="st1" points="722.7,372.7 722.7,723.3 834.2,723.3 834.2,691.8 754.8,691.8 754.8,372.7   "></polygon>		<path class="st1" d="M563.3,420.5c0,26.3,21.4,47.9,47.9,47.9c26.4,0,47.9-21.4,47.9-47.9c0-26.3-21.4-48-47.9-48   S563.3,394.1,563.3,420.5z"></path>		<path class="st1" d="M834.5,533v30.8h207.1c0,0.7,0,3.9-0.1,4.8c-10.5,157.7-142.2,282.6-302.6,282.6   c-81.2,0-157.3-31.6-214.5-88.9c-57.5-57.1-89.1-133.1-89.1-214.4c0-80.8,31.7-157.2,89.1-214.5c57.3-57.2,133.4-88.8,214.5-88.8   c3.5,0,12,0,15.9,0.2v-31.1c-5.3-0.3-10.6-0.4-15.9-0.5c-184.5,0-334.7,150.2-334.7,334.7c0,89.6,34.8,173.6,97.9,236.7   c63.3,63,147.3,97.8,236.9,97.8c89.2,0,173.2-34.8,236.4-97.8c63.2-63.1,98.2-147.1,98.2-236.7V533H834.5z"></path>	</g>	<path class="st2" d="M1439.3,287.9h-120.1V808h369V706.8h-248.9L1439.3,287.9z M1952.5,609.8h97.8v90.9  c-18,6.9-53.2,13.7-86.7,13.7c-108.1,0-144.2-54.9-144.2-166.5c0-106.4,34.3-169.1,142.4-169.1c60.1,0,94.4,18.9,122.7,54.9  l74.7-68.7c-45.5-65.2-125.3-84.9-200-84.9c-168.2,0-256.6,91.8-256.6,266.9c0,174.2,79.8,268.6,255.8,268.6  c80.7,0,159.6-20.6,202.5-50.6V512.8h-208.5V609.8z"></path></g></svg>