<svg xmlns="http://www.w3.org/2000/svg" xmlns:xlink="http://www.w3.org/1999/xlink" id="Layer_1" x="0px" y="0px" viewBox="0 0 2500 1323.6" style="enable-background:new 0 0 2500 1323.6;" xml:space="preserve">  <style type="text/css">	.st0{fill-rule:evenodd;clip-rule:evenodd;}	.st1{fill-rule:evenodd;clip-rule:evenodd;fill:#EBB53B;}</style>  <g>	<path class="st0" d="M1869.3,552.3c-61.7,0-108.1,43.4-108.1,110.3c0,66.2,44.9,111.8,108.1,111.8c64,0,104.4-44.1,104.4-111  C1973.7,597.1,1933.3,552.3,1869.3,552.3z M1904.6,716.9c0,19.5-15.8,35.3-35.3,35.3l0,0c-19.1,0-34.5-15.4-34.5-35.3V605.2  c0-19.1,15.4-34.5,34.5-34.6c0,0,0,0,0.1,0c19.1,0,35.3,15.4,35.3,34.6V716.9z M1641.5,555.9c-15.4,0-36.8,2.9-47.8,18.4v-19.9  c-27.9,5.1-32.4,6.6-97,6.6v22.1c21.3,0,34.5,1.5,34.5,25v207.3c-0.7,26.5,3.7,45.6-35.3,45.6v23.5h138.2V861h-4.4  c-26.5,0-36-14-36-29.4v-77.2c12.5,16.9,29.4,20.6,44.8,20.6c59.6-0.7,91.9-40.5,91.9-111.8  C1730.4,598.6,1703.9,555.9,1641.5,555.9L1641.5,555.9z M1656.9,722.8c0,16.2-12.5,29.4-28.7,29.4c-16.2,0-29.4-13.2-29.4-29.4  V611.1c0-16.2,13.2-28.7,29.4-28.7s28.7,12.5,28.7,28.7V722.8z"></path>	<path class="st1" d="M1172.4,641.2c-11.8,11.8-22.8,23.5-33.8,34.5v-41.2l29.4-29.4c2.2,2.9,4.4,4.4,4.4,13.2L1172.4,641.2  L1172.4,641.2z M1342.3,483.2c-22.3,18.8-44.1,38.2-65.4,58.1v-17.7c-6.6,5.1-29.4,10.3-38.2,11c28.3-28.3,57.8-55.6,88.2-81.6  v29.4L1342.3,483.2L1342.3,483.2z"></path>	<path class="st1" d="M1423.1,414.8c138.2-111.7,288.2-211,441.8-278.6c104.4-42.6,164.7-60.3,207.3-13.2  c42.6,46.3-49.3,197-68.4,216.1c-23.5-7.3-32.3,4.4-32.3,4.4c8.8-2.9,24.3,3.7,14,27.2c-4.4,8.8-22,21.3-29.4,0.7  c-8.8,22.1-30.1,59.5-55.9,94.1c-86.8,118.4-207.3,232.3-383,388.9c-287.4,255.8-435.9,313.2-535.9,355.1  c-72.1,27.2-255.1,66.9-135.3-154.4c25-57.3,91.9-152.9,187.4-263.2h-29.4v-10.3c-70.6,82.3-139.7,172.8-185.2,262.4  c-36.8,65.4-108.1,272,156.6,191.9c86.7-27.2,319.8-139.7,576.3-369.8c271.3-242.6,408.7-414.6,455.8-471.2  c9.6-11,19.1-28.7,11.8-41.9c46.3-69.1,110.3-213.2,63.9-257.3c-51.4-49.3-152.9-16.9-191.9-2.2c-61,24.3-294.8,136.7-519.7,321.3  L1423.1,414.8L1423.1,414.8L1423.1,414.8z"></path>	<path class="st0" d="M955.6,289.1c-2.2,9.5-8.1,23.5-43.4,44.8c-89.7,52.2-238.2,57.3-354.3,54.4c-178.6-4.4-252.9-45.6-271.3-61.7  c-10.3-9.6-8.8-18.4,2.9-27.2c33.1-25,150-33.8,227.2-33.8s165.4,17.7,164.7,38.2c0,21.3-42.6,24.3-52.2,25c-6.6,0.7-14-2.2-14-5.9  c1.5-5.9,11.8-5.9,16.9-7.4c4.4-0.7,6.6-4.4,6.6-9.6c0-6.6-19.1-13.2-34.5-15.4c-44.8-11.8-103.7-8.1-134.5-5.9  c-55.1,3.7-93.4,20.6-93.4,33.8c0,12.5,32.3,50,193.3,55.1c207.3,6.6,304.4-28.7,351.4-62.5c32.3-25,8.1-41.9-22.8-57.3  c-84.5-39.7-244.8-43.4-324.9-44.1c-90.4-1.5-241.1,9.6-305.1,21.3c-14,3.7-11,15.4,8.8,11c23.5-3.7,188.2-15.4,268.3-11  c80.1,3.7,177.9,1.5,268.3,46.3c15.4,9.5,20.6,26.5-2.9,39.7c-22.8,12.5-81.6,41.2-219.1,41.9C465.2,360.4,449,339,438,330.2  c-4.4-3.7-5.1-14.7,11.8-23.5c11.8-5.3,24.6-8.1,37.5-8.1c10.3,0,14,11,2.9,11.8c-11,2.9-22.8,4.4-22.8,12.5  c0,6.6,7.4,7.4,15.4,10.3c7.3,2.9,46.3,11.8,95.6,11.8c72,0,127.2-10.3,159.5-29.4c13.2-6.6,16.9-27.9-5.9-35.3  c-35.3-11.8-98.5-32.4-230.1-32.4c-90.4,0-258.8,14-307.3,27.2c-16.9,5.1-55.9,16.2-55.9,36.8c0,20.6,26.5,30.1,39,34.5  c71.3,25,272.7,55.1,352.1,55.9c221.3,2.2,345.5-16.2,422-81.6c5.9-7.4,16.2-18.4,17.6-29.4C971,276.6,958.5,275.8,955.6,289.1  L955.6,289.1z M743.1,439c55.1,0,69.8-1.5,92.6-7.3v154.4c19.9-33.1,45.6-33.1,75-33.1c25,0,57.3,22.8,57.3,73.5v64.7  c0,41.1,2.2,57.3,29.4,57.3h0.7v19.1H882.8v-19.1c20.6,0,22.1-23.5,22.1-42.6l0.7-14.7v-62.5c0-26.5-8.8-41.9-25.7-41.9  c-34.6,0-44.1,27.9-44.1,64.7v46.3c1.5,30.9,0,50.7,25.7,50.7v19.1H740.9v-19.1c25.7,0,32.3-14.7,32.3-43.4V486.1  c0-21.3,0.7-26.5-14.7-23.5c-19.9,5.9-25.7,16.2-34.6,43.4l-86,272h-19.1l-65.4-183.8l-66.9,183.8h-19.1L347.6,487.6  c-7.4-23.5-25.7-25.7-49.3-27.2V439h151.4v21.3h-5.9c-16.2,0-15.4,5.1-15.4,15.4c0,5.9,0.7,11,5.1,26.5l64.7,176.4l44.1-123.5  L524,509.6c-11-35.3-14-49.3-47.8-49.3V439H613v21.3l-7.3,0.7c-11,1.5-12.5,6.6-12.5,16.9c0,5.1,0.7,8.1,5.1,21.3l51.5,166.9  l57.3-181.6c3.7-17.6-14-24.3-23.5-25V439H743.1L743.1,439z M1119.5,492c0,19.1-16.2,35.3-36,35.3c-19.1,0-34.5-16.2-34.5-35.3  c0-19.9,16.2-35.3,34.5-35.3C1103.3,456.7,1119.5,472.1,1119.5,492z M1023.2,767.7h121.3v-20.6c-26.5,0-28.7-13.2-28.7-55.1V551.5  c-19.8,6.6-44.8,7.3-97.8,7.3v21.3h8.8c23.5,0,27.2,25,27.2,25.7v86c0,41.2-3.7,55.1-30.9,55.1L1023.2,767.7L1023.2,767.7z   M1261.4,572.8c19.9-24.3,52.9-16.9,55.9-16.9c21.3,0,32.3,22.8,32.3,38.2c0,21.3-14,37.5-33.1,37.5c-18.4,0-32.3-11.8-32.3-30.1  c0-5.9,0.7-9.5,2.9-12.5c2.2-2.2,2.2-2.9,2.2-3.7c0-0.7,0.7-5.9-0.7-5.9c-2.9,0-8.1-2.9-14.7,5.9c-11.8,14-12.5,25.7-12.5,44.1  v88.2c1.5,9.6,3.7,20.6,13.2,26.5c5.1,2.9,5.9,4.4,16.9,4.4v19.1h-121.3v-20.6c26.5,0,28.7-12.5,28.7-53.7v-88.2  c0-26.5-12.5-25-35.3-25v-20.6c51.5,0,72.8-0.7,97.8-5.9V572.8L1261.4,572.8z M2325.9,696.3c0,41.1,8.8,47.8,35.3,51.4v18.4h-133.8  v-19.1c26.5-2.9,35.3-9.6,35.3-50.7V489.8c0-20.6-12.5-30.1-27.9-30.9l-7.4,0.7v-21.3c52.2,0,72,0.7,98.5-5.9V696.3L2325.9,696.3z   M2111.2,552.3c-61.7,0-108.1,43.4-108.1,110.3c0,66.2,44.1,111.8,107.3,111.8c63.9,0,105.1-44.1,105.1-111  C2215.6,597.1,2174.4,552.3,2111.2,552.3z M2145.8,716.9c0,19.9-15.4,35.3-34.5,35.3c-19.1,0-35.3-15.4-35.3-35.3V605.2  c0-19.1,16.1-34.6,35.3-34.6s34.5,15.4,34.5,34.6V716.9z M1451,696.3c0,41.1,8.8,47.8,35.3,51.4v18.4h-133.8v-19.1  c26.5-2.9,36-9.6,36-50.7V489.8c-0.7-20.6-13.2-30.1-28.7-30.9l-7.4,0.7v-21.3c52.9,0,72,0.7,98.5-5.9V696.3L1451,696.3z"></path></g></svg>